<?xml version="1.0" encoding="UTF-8" standalone="no"?>
<svg
   xmlns:dc="http://purl.org/dc/elements/1.1/"
   xmlns:cc="http://creativecommons.org/ns#"
   xmlns:rdf="http://www.w3.org/1999/02/22-rdf-syntax-ns#"
   xmlns:svg="http://www.w3.org/2000/svg"
   xmlns="http://www.w3.org/2000/svg"
   xmlns:sodipodi="http://sodipodi.sourceforge.net/DTD/sodipodi-0.dtd"
   xmlns:inkscape="http://www.inkscape.org/namespaces/inkscape"
   inkscape:version="1.0beta2 (2b71d25, 2019-12-03)"
   width="19"
   height="33"
   viewBox="0 0 19 33"
   id="svg2"
   version="1.1"
   sodipodi:docname="digit.svg">
  <defs
     id="defs4" />
  <sodipodi:namedview
     id="base"
     pagecolor="#ffffff"
     bordercolor="#666666"
     borderopacity="1.0"
     inkscape:pageopacity="0.0"
     inkscape:pageshadow="2"
     inkscape:zoom="13.365625"
     inkscape:cx="-0.89507069"
     inkscape:cy="19.051242"
     inkscape:document-units="px"
     inkscape:current-layer="g6308"
     showgrid="true"
     units="px"
     inkscape:snap-global="true"
     inkscape:window-width="3840"
     inkscape:window-height="2040"
     inkscape:window-x="0"
     inkscape:window-y="23"
     inkscape:window-maximized="1"
     inkscape:document-rotation="0">
    <inkscape:grid
       type="xygrid"
       id="grid3336"
       empspacing="10" />
  </sodipodi:namedview>
  <metadata
     id="metadata7">
    <rdf:RDF>
      <cc:Work
         rdf:about="">
        <dc:format>image/svg+xml</dc:format>
        <dc:type
           rdf:resource="http://purl.org/dc/dcmitype/StillImage" />
        <dc:title />
      </cc:Work>
    </rdf:RDF>
  </metadata>
  <g
     inkscape:groupmode="layer"
     id="g5397"
     inkscape:label="digit_0"
     style="display:none"
     transform="translate(0,1)"
     sodipodi:insensitive="true">
    <path
       style="fill:#fc0d1b;fill-opacity:1;fill-rule:evenodd;stroke:none;stroke-width:1px;stroke-linecap:butt;stroke-linejoin:miter;stroke-opacity:1"
       d="m 14,4 4,-4 h 1 v 15 h -1 l -4,-4 z"
       id="path5399"
       inkscape:connector-curvature="0" />
    <path
       inkscape:connector-curvature="0"
       id="path5401"
       d="m 14,20 4,-4 h 1 v 15 h -1 l -4,-4 z"
       style="fill:#fc0d1b;fill-opacity:1;fill-rule:evenodd;stroke:none;stroke-width:1px;stroke-linecap:butt;stroke-linejoin:miter;stroke-opacity:1" />
    <path
       style="fill:#fc0d1b;fill-opacity:1;fill-rule:evenodd;stroke:none;stroke-width:1px;stroke-linecap:butt;stroke-linejoin:miter;stroke-opacity:1"
       d="m 6,4 h 7 L 17,0 V -1 H 2 v 1 z"
       id="path5403"
       inkscape:connector-curvature="0" />
    <path
       style="fill:#fc0d1b;fill-opacity:1;fill-rule:evenodd;stroke:none;stroke-width:1px;stroke-linecap:butt;stroke-linejoin:miter;stroke-opacity:1"
       d="m 5,4 v 7 L 1,15 H 0 V 0 h 1 z"
       id="path5405"
       inkscape:connector-curvature="0" />
    <path
       inkscape:connector-curvature="0"
       id="path5407"
       d="m 5,20 v 7 L 1,31 H 0 V 16 h 1 z"
       style="fill:#fc0d1b;fill-opacity:1;fill-rule:evenodd;stroke:none;stroke-width:1px;stroke-linecap:butt;stroke-linejoin:miter;stroke-opacity:1" />
    <path
       style="fill:#fc0d1b;fill-opacity:1;fill-rule:evenodd;stroke:none;stroke-width:1px;stroke-linecap:butt;stroke-linejoin:miter;stroke-opacity:1"
       d="m 2,31 v 1 H 17 V 31 L 13,27 H 6 Z"
       id="path5411"
       inkscape:connector-curvature="0" />
  </g>
  <g
     transform="translate(0,1)"
     style="display:none"
     inkscape:label="digit_1"
     id="g6180"
     inkscape:groupmode="layer"
     sodipodi:insensitive="true">
    <path
       inkscape:connector-curvature="0"
       id="path6182"
       d="m 14,4 4,-4 h 1 v 15 h -1 l -4,-4 z"
       style="fill:#fc0d1b;fill-opacity:1;fill-rule:evenodd;stroke:none;stroke-width:1px;stroke-linecap:butt;stroke-linejoin:miter;stroke-opacity:1" />
    <path
       style="fill:#fc0d1b;fill-opacity:1;fill-rule:evenodd;stroke:none;stroke-width:1px;stroke-linecap:butt;stroke-linejoin:miter;stroke-opacity:1"
       d="m 14,20 4,-4 h 1 v 15 h -1 l -4,-4 z"
       id="path6184"
       inkscape:connector-curvature="0" />
  </g>
  <g
     transform="translate(0,1)"
     style="display:none"
     inkscape:label="digit_2"
     id="g6196"
     inkscape:groupmode="layer"
     sodipodi:insensitive="true">
    <path
       inkscape:connector-curvature="0"
       id="path6198"
       d="m 14,4 4,-4 h 1 v 15 h -1 l -4,-4 z"
       style="fill:#fc0d1b;fill-opacity:1;fill-rule:evenodd;stroke:none;stroke-width:1px;stroke-linecap:butt;stroke-linejoin:miter;stroke-opacity:1" />
    <path
       inkscape:connector-curvature="0"
       id="path6202"
       d="m 6,4 h 7 L 17,0 V -1 H 2 v 1 z"
       style="fill:#fc0d1b;fill-opacity:1;fill-rule:evenodd;stroke:none;stroke-width:1px;stroke-linecap:butt;stroke-linejoin:miter;stroke-opacity:1" />
    <path
       style="fill:#fc0d1b;fill-opacity:1;fill-rule:evenodd;stroke:none;stroke-width:1px;stroke-linecap:butt;stroke-linejoin:miter;stroke-opacity:1"
       d="m 5,20 v 7 L 1,31 H 0 V 16 h 1 z"
       id="path6206"
       inkscape:connector-curvature="0" />
    <path
       inkscape:connector-curvature="0"
       id="path6208"
       d="m 2,15 2,-2 h 11 l 2,2 v 1 l -2,2 H 4 L 2,16 Z"
       style="fill:#fc0d1b;fill-opacity:1;fill-rule:evenodd;stroke:none;stroke-width:1px;stroke-linecap:butt;stroke-linejoin:miter;stroke-opacity:1" />
    <path
       inkscape:connector-curvature="0"
       id="path6210"
       d="m 2,31 v 1 H 17 V 31 L 13,27 H 6 Z"
       style="fill:#fc0d1b;fill-opacity:1;fill-rule:evenodd;stroke:none;stroke-width:1px;stroke-linecap:butt;stroke-linejoin:miter;stroke-opacity:1" />
  </g>
  <g
     transform="translate(0,1)"
     style="display:none"
     inkscape:label="digit_3"
     id="g6212"
     inkscape:groupmode="layer"
     sodipodi:insensitive="true">
    <path
       inkscape:connector-curvature="0"
       id="path6214"
       d="m 14,4 4,-4 h 1 v 15 h -1 l -4,-4 z"
       style="fill:#fc0d1b;fill-opacity:1;fill-rule:evenodd;stroke:none;stroke-width:1px;stroke-linecap:butt;stroke-linejoin:miter;stroke-opacity:1" />
    <path
       style="fill:#fc0d1b;fill-opacity:1;fill-rule:evenodd;stroke:none;stroke-width:1px;stroke-linecap:butt;stroke-linejoin:miter;stroke-opacity:1"
       d="m 14,20 4,-4 h 1 v 15 h -1 l -4,-4 z"
       id="path6216"
       inkscape:connector-curvature="0" />
    <path
       inkscape:connector-curvature="0"
       id="path6218"
       d="m 6,4 h 7 L 17,0 V -1 H 2 v 1 z"
       style="fill:#fc0d1b;fill-opacity:1;fill-rule:evenodd;stroke:none;stroke-width:1px;stroke-linecap:butt;stroke-linejoin:miter;stroke-opacity:1" />
    <path
       inkscape:connector-curvature="0"
       id="path6224"
       d="m 2,15 2,-2 h 11 l 2,2 v 1 l -2,2 H 4 L 2,16 Z"
       style="fill:#fc0d1b;fill-opacity:1;fill-rule:evenodd;stroke:none;stroke-width:1px;stroke-linecap:butt;stroke-linejoin:miter;stroke-opacity:1" />
    <path
       inkscape:connector-curvature="0"
       id="path6226"
       d="m 2,31 v 1 H 17 V 31 L 13,27 H 6 Z"
       style="fill:#fc0d1b;fill-opacity:1;fill-rule:evenodd;stroke:none;stroke-width:1px;stroke-linecap:butt;stroke-linejoin:miter;stroke-opacity:1" />
  </g>
  <g
     transform="translate(0,1)"
     style="display:none"
     inkscape:label="digit_4"
     id="g6228"
     inkscape:groupmode="layer"
     sodipodi:insensitive="true">
    <path
       inkscape:connector-curvature="0"
       id="path6230"
       d="m 14,4 4,-4 h 1 v 15 h -1 l -4,-4 z"
       style="fill:#fc0d1b;fill-opacity:1;fill-rule:evenodd;stroke:none;stroke-width:1px;stroke-linecap:butt;stroke-linejoin:miter;stroke-opacity:1" />
    <path
       style="fill:#fc0d1b;fill-opacity:1;fill-rule:evenodd;stroke:none;stroke-width:1px;stroke-linecap:butt;stroke-linejoin:miter;stroke-opacity:1"
       d="m 14,20 4,-4 h 1 v 15 h -1 l -4,-4 z"
       id="path6232"
       inkscape:connector-curvature="0" />
    <path
       inkscape:connector-curvature="0"
       id="path6236"
       d="m 5,4 v 7 L 1,15 H 0 V 0 h 1 z"
       style="fill:#fc0d1b;fill-opacity:1;fill-rule:evenodd;stroke:none;stroke-width:1px;stroke-linecap:butt;stroke-linejoin:miter;stroke-opacity:1" />
    <path
       inkscape:connector-curvature="0"
       id="path6240"
       d="m 2,15 2,-2 h 11 l 2,2 v 1 l -2,2 H 4 L 2,16 Z"
       style="fill:#fc0d1b;fill-opacity:1;fill-rule:evenodd;stroke:none;stroke-width:1px;stroke-linecap:butt;stroke-linejoin:miter;stroke-opacity:1" />
  </g>
  <g
     transform="translate(0,1)"
     style="display:none"
     inkscape:label="digit_5"
     id="g6244"
     inkscape:groupmode="layer"
     sodipodi:insensitive="true">
    <path
       style="fill:#fc0d1b;fill-opacity:1;fill-rule:evenodd;stroke:none;stroke-width:1px;stroke-linecap:butt;stroke-linejoin:miter;stroke-opacity:1"
       d="M 14,20 18,16 19,16 19,31 18,31 14,27 Z"
       id="path6248"
       inkscape:connector-curvature="0" />
    <path
       inkscape:connector-curvature="0"
       id="path6250"
       d="M 6,4 13,4 17,0 17,-1 2,-1 2,0 Z"
       style="fill:#fc0d1b;fill-opacity:1;fill-rule:evenodd;stroke:none;stroke-width:1px;stroke-linecap:butt;stroke-linejoin:miter;stroke-opacity:1" />
    <path
       inkscape:connector-curvature="0"
       id="path6252"
       d="M 5,4 5,11 1,15 0,15 0,0 1,0 Z"
       style="fill:#fc0d1b;fill-opacity:1;fill-rule:evenodd;stroke:none;stroke-width:1px;stroke-linecap:butt;stroke-linejoin:miter;stroke-opacity:1" />
    <path
       inkscape:connector-curvature="0"
       id="path6256"
       d="M 2,15 4,13 15,13 17,15 17,16 15,18 4,18 2,16 Z"
       style="fill:#fc0d1b;fill-opacity:1;fill-rule:evenodd;stroke:none;stroke-width:1px;stroke-linecap:butt;stroke-linejoin:miter;stroke-opacity:1" />
    <path
       inkscape:connector-curvature="0"
       id="path6258"
       d="M 2,31 2,32 17,32 17,31 13,27 6,27 Z"
       style="fill:#fc0d1b;fill-opacity:1;fill-rule:evenodd;stroke:none;stroke-width:1px;stroke-linecap:butt;stroke-linejoin:miter;stroke-opacity:1" />
  </g>
  <g
     transform="translate(0,1)"
     style="display:none"
     inkscape:label="digit_6"
     id="g6260"
     inkscape:groupmode="layer"
     sodipodi:insensitive="true">
    <path
       style="fill:#fc0d1b;fill-opacity:1;fill-rule:evenodd;stroke:none;stroke-width:1px;stroke-linecap:butt;stroke-linejoin:miter;stroke-opacity:1"
       d="M 14,20 18,16 19,16 19,31 18,31 14,27 Z"
       id="path6264"
       inkscape:connector-curvature="0" />
    <path
       inkscape:connector-curvature="0"
       id="path6266"
       d="M 6,4 13,4 17,0 17,-1 2,-1 2,0 Z"
       style="fill:#fc0d1b;fill-opacity:1;fill-rule:evenodd;stroke:none;stroke-width:1px;stroke-linecap:butt;stroke-linejoin:miter;stroke-opacity:1" />
    <path
       inkscape:connector-curvature="0"
       id="path6268"
       d="M 5,4 5,11 1,15 0,15 0,0 1,0 Z"
       style="fill:#fc0d1b;fill-opacity:1;fill-rule:evenodd;stroke:none;stroke-width:1px;stroke-linecap:butt;stroke-linejoin:miter;stroke-opacity:1" />
    <path
       style="fill:#fc0d1b;fill-opacity:1;fill-rule:evenodd;stroke:none;stroke-width:1px;stroke-linecap:butt;stroke-linejoin:miter;stroke-opacity:1"
       d="M 5,20 5,27 1,31 0,31 0,16 1,16 Z"
       id="path6270"
       inkscape:connector-curvature="0" />
    <path
       inkscape:connector-curvature="0"
       id="path6272"
       d="M 2,15 4,13 15,13 17,15 17,16 15,18 4,18 2,16 Z"
       style="fill:#fc0d1b;fill-opacity:1;fill-rule:evenodd;stroke:none;stroke-width:1px;stroke-linecap:butt;stroke-linejoin:miter;stroke-opacity:1" />
    <path
       inkscape:connector-curvature="0"
       id="path6274"
       d="M 2,31 2,32 17,32 17,31 13,27 6,27 Z"
       style="fill:#fc0d1b;fill-opacity:1;fill-rule:evenodd;stroke:none;stroke-width:1px;stroke-linecap:butt;stroke-linejoin:miter;stroke-opacity:1" />
  </g>
  <g
     transform="translate(0,1)"
     style="display:none"
     inkscape:label="digit_7"
     id="g6276"
     inkscape:groupmode="layer"
     sodipodi:insensitive="true">
    <path
       inkscape:connector-curvature="0"
       id="path6278"
       d="M 14,4 18,0 19,0 19,15 18,15 14,11 Z"
       style="fill:#fc0d1b;fill-opacity:1;fill-rule:evenodd;stroke:none;stroke-width:1px;stroke-linecap:butt;stroke-linejoin:miter;stroke-opacity:1" />
    <path
       style="fill:#fc0d1b;fill-opacity:1;fill-rule:evenodd;stroke:none;stroke-width:1px;stroke-linecap:butt;stroke-linejoin:miter;stroke-opacity:1"
       d="M 14,20 18,16 19,16 19,31 18,31 14,27 Z"
       id="path6280"
       inkscape:connector-curvature="0" />
    <path
       inkscape:connector-curvature="0"
       id="path6282"
       d="M 6,4 13,4 17,0 17,-1 2,-1 2,0 Z"
       style="fill:#fc0d1b;fill-opacity:1;fill-rule:evenodd;stroke:none;stroke-width:1px;stroke-linecap:butt;stroke-linejoin:miter;stroke-opacity:1" />
  </g>
  <g
     transform="translate(0,1)"
     style="display:none"
     inkscape:label="digit_8"
     id="g6292"
     inkscape:groupmode="layer"
     sodipodi:insensitive="true">
    <path
       inkscape:connector-curvature="0"
       id="path6294"
       d="M 14,4 18,0 19,0 19,15 18,15 14,11 Z"
       style="fill:#fc0d1b;fill-opacity:1;fill-rule:evenodd;stroke:none;stroke-width:1px;stroke-linecap:butt;stroke-linejoin:miter;stroke-opacity:1" />
    <path
       style="fill:#fc0d1b;fill-opacity:1;fill-rule:evenodd;stroke:none;stroke-width:1px;stroke-linecap:butt;stroke-linejoin:miter;stroke-opacity:1"
       d="M 14,20 18,16 19,16 19,31 18,31 14,27 Z"
       id="path6296"
       inkscape:connector-curvature="0" />
    <path
       inkscape:connector-curvature="0"
       id="path6298"
       d="M 6,4 13,4 17,0 17,-1 2,-1 2,0 Z"
       style="fill:#fc0d1b;fill-opacity:1;fill-rule:evenodd;stroke:none;stroke-width:1px;stroke-linecap:butt;stroke-linejoin:miter;stroke-opacity:1" />
    <path
       inkscape:connector-curvature="0"
       id="path6300"
       d="M 5,4 5,11 1,15 0,15 0,0 1,0 Z"
       style="fill:#fc0d1b;fill-opacity:1;fill-rule:evenodd;stroke:none;stroke-width:1px;stroke-linecap:butt;stroke-linejoin:miter;stroke-opacity:1" />
    <path
       style="fill:#fc0d1b;fill-opacity:1;fill-rule:evenodd;stroke:none;stroke-width:1px;stroke-linecap:butt;stroke-linejoin:miter;stroke-opacity:1"
       d="M 5,20 5,27 1,31 0,31 0,16 1,16 Z"
       id="path6302"
       inkscape:connector-curvature="0" />
    <path
       inkscape:connector-curvature="0"
       id="path6304"
       d="M 2,15 4,13 15,13 17,15 17,16 15,18 4,18 2,16 Z"
       style="fill:#fc0d1b;fill-opacity:1;fill-rule:evenodd;stroke:none;stroke-width:1px;stroke-linecap:butt;stroke-linejoin:miter;stroke-opacity:1" />
    <path
       inkscape:connector-curvature="0"
       id="path6306"
       d="M 2,31 2,32 17,32 17,31 13,27 6,27 Z"
       style="fill:#fc0d1b;fill-opacity:1;fill-rule:evenodd;stroke:none;stroke-width:1px;stroke-linecap:butt;stroke-linejoin:miter;stroke-opacity:1" />
  </g>
  <g
     transform="translate(0,1)"
     style="display:inline"
     inkscape:label="digit_9"
     id="g6308"
     inkscape:groupmode="layer"
     sodipodi:insensitive="true">
    <path
       inkscape:connector-curvature="0"
       id="path6310"
       d="m 14,4 4,-4 h 1 v 15 h -1 l -4,-4 z"
       style="fill:#fc0d1b;fill-opacity:1;fill-rule:evenodd;stroke:none;stroke-width:1px;stroke-linecap:butt;stroke-linejoin:miter;stroke-opacity:1" />
    <path
       style="fill:#fc0d1b;fill-opacity:1;fill-rule:evenodd;stroke:none;stroke-width:1px;stroke-linecap:butt;stroke-linejoin:miter;stroke-opacity:1"
       d="m 14,20 4,-4 h 1 v 15 h -1 l -4,-4 z"
       id="path6312"
       inkscape:connector-curvature="0" />
    <path
       inkscape:connector-curvature="0"
       id="path6314"
       d="m 6,4 h 7 L 17,0 V -1 H 2 v 1 z"
       style="fill:#fc0d1b;fill-opacity:1;fill-rule:evenodd;stroke:none;stroke-width:1px;stroke-linecap:butt;stroke-linejoin:miter;stroke-opacity:1" />
    <path
       inkscape:connector-curvature="0"
       id="path6316"
       d="m 5,4 v 7 L 1,15 H 0 V 0 h 1 z"
       style="fill:#fc0d1b;fill-opacity:1;fill-rule:evenodd;stroke:none;stroke-width:1px;stroke-linecap:butt;stroke-linejoin:miter;stroke-opacity:1" />
    <path
       inkscape:connector-curvature="0"
       id="path6320"
       d="m 2,15 2,-2 h 11 l 2,2 v 1 l -2,2 H 4 L 2,16 Z"
       style="fill:#fc0d1b;fill-opacity:1;fill-rule:evenodd;stroke:none;stroke-width:1px;stroke-linecap:butt;stroke-linejoin:miter;stroke-opacity:1" />
    <path
       inkscape:connector-curvature="0"
       id="path6322"
       d="m 2,31 v 1 H 17 V 31 L 13,27 H 6 Z"
       style="fill:#fc0d1b;fill-opacity:1;fill-rule:evenodd;stroke:none;stroke-width:1px;stroke-linecap:butt;stroke-linejoin:miter;stroke-opacity:1" />
  </g>
</svg>
